<?xml version="1.0" encoding="UTF-8"?>
<svg xmlns="http://www.w3.org/2000/svg" xmlns:xlink="http://www.w3.org/1999/xlink" width="16px" height="16px" viewBox="0 0 16 16" version="1.1">
<g id="surface1">
<path style=" stroke:none;fill-rule:nonzero;fill:rgb(100%,100%,100%);fill-opacity:1;" d="M 13.46875 2.46875 L 2.53125 2.46875 C 1.945312 2.46875 1.46875 2.945312 1.46875 3.53125 L 1.46875 12.46875 C 1.46875 13.054688 1.945312 13.53125 2.53125 13.53125 L 13.46875 13.53125 C 14.054688 13.53125 14.53125 13.054688 14.53125 12.46875 L 14.53125 3.53125 C 14.53125 2.945312 14.054688 2.46875 13.46875 2.46875 Z M 7.5625 8.390625 L 5.0625 10.390625 C 4.847656 10.5625 4.53125 10.527344 4.359375 10.3125 C 4.1875 10.097656 4.222656 9.78125 4.4375 9.609375 L 6.449219 8 L 4.4375 6.390625 C 4.222656 6.21875 4.1875 5.902344 4.359375 5.6875 C 4.53125 5.472656 4.847656 5.4375 5.0625 5.609375 L 7.5625 7.609375 C 7.679688 7.703125 7.75 7.847656 7.75 8 C 7.75 8.152344 7.679688 8.296875 7.5625 8.390625 Z M 11.25 10.5 L 8.75 10.5 C 8.472656 10.5 8.25 10.277344 8.25 10 C 8.25 9.722656 8.472656 9.5 8.75 9.5 L 11.25 9.5 C 11.527344 9.5 11.75 9.722656 11.75 10 C 11.75 10.277344 11.527344 10.5 11.25 10.5 Z M 11.25 10.5 "/>
</g>
</svg>
