<svg xmlns="http://www.w3.org/2000/svg" version="1.1" viewBox="105 70 490 420">
 <path d="m542.5 70h-385c-13.926 0-27.277 5.5312-37.125 15.375-9.8438 9.8477-15.375 23.199-15.375 37.125v315c0 13.926 5.5312 27.277 15.375 37.125 9.8477 9.8438 23.199 15.375 37.125 15.375h385c13.926 0 27.277-5.5312 37.125-15.375 9.8438-9.8477 15.375-23.199 15.375-37.125v-315c0-13.926-5.5312-27.277-15.375-37.125-9.8477-9.8438-23.199-15.375-37.125-15.375zm-267.63 169.87-52.5 52.5c-3.2578 3.3789-7.7422 5.3008-12.434 5.3438-4.6953 0.039062-9.207-1.8047-12.527-5.125-3.3203-3.3203-5.1641-7.832-5.125-12.527 0.042969-4.6914 1.9648-9.1758 5.3438-12.434l40.125-40.129-40.125-40.129c-3.3789-3.2578-5.3008-7.7422-5.3438-12.434-0.039062-4.6953 1.8047-9.207 5.125-12.527 3.3203-3.3203 7.832-5.1641 12.527-5.125 4.6914 0.042969 9.1758 1.9648 12.434 5.3438l52.5 52.5c3.2812 3.2812 5.125 7.7305 5.125 12.371s-1.8438 9.0898-5.125 12.371zm145.13 57.629h-87.5c-6.2539 0-12.031-3.3359-15.156-8.75s-3.125-12.086 0-17.5 8.9023-8.75 15.156-8.75h87.5c6.2539 0 12.031 3.3359 15.156 8.75s3.125 12.086 0 17.5-8.9023 8.75-15.156 8.75z" fill="#ffffff"/>
</svg>