<svg xmlns="http://www.w3.org/2000/svg" data-dmid="DmBrandMonoIcon" viewBox="0 0 20 13.08" width="24" fill="#ffffff" pointer-events="none" data-designsystem="true" role="img" color="#ffffff" height="100%"><path d="M19.97 9.43c-.2.21-.42.4-.66.56-.87.59-2.62 1.35-5.32.67-.26-.07-.5-.13-.74-.2-2.47-.72-3.93-1.66-7.23-2.07-2.24.05-4.51.32-5.75.81.16.16.3.32.44.49.05.11.17.44.28.77.12.36.24.7.24.7.97-.5 1.99-.9 3.04-1.19.77-.21 1.59-.34 2.35-.3 2.52.16 4.55 1.46 6.81 2.52 1.57.44 5.38.77 6.46.29-.03 0 .19-1.04.08-3.05M.82 10.83l-.82.29s.95.95 1.12 1.32l.23.64s2.98-1.64 7.31-1.39c.63.04 1.25.16 1.85.34 0 0-1.52-.98-1.87-1.09-1.7-.42-3.06-.61-4.01-.65-1.64.44-3.56 1.25-3.56 1.25s-.12-.35-.25-.71m18.49-1.12c-.16-1.04-.57-1.53-.57-1.53-4.72.76-7.64.46-9.6.15.7.52 2.4 1.11 4.1 1.85.24.07.49.14.74.21 2.7.67 4.45-.1 5.33-.68m-2.29-1.72.61-3.75c.2-1.02-.02-1.78-1.08-1.78-.96 0-1.57.67-2.07 1.57l-.01-.01c.05-.16.08-.32.09-.49 0-.73-.42-1.07-1.06-1.07-.96 0-1.49.65-1.98 1.49h-.02c.18-.45.32-.92.41-1.4-.78-.03-1.57 0-2.35.1l-.21 1.02c.31.02.61.06.92.11v.03l-.8 4.18h1.48l.28-1.49c.24-1.29 1.13-2.6 1.63-2.6.25 0 .33.21.22.75l-.55 3.33h1.48l.23-1.44c.21-1.3 1.12-2.63 1.62-2.63.25 0 .33.21.22.75l-.54 3.33h1.48zM6.86 3.7c-1.02 0-1.61 1.43-1.61 2.44 0 .41.1.6.32.6.58 0 1.56-1.66 1.75-2.7l.05-.27c-.17-.04-.34-.06-.51-.07m1.21 4.29H6.58c.09-.48.23-.95.4-1.41h-.03c-.47.79-1.13 1.54-1.98 1.54-.86 0-1.3-.56-1.3-1.72 0-2.06 1.07-3.93 3.46-3.93.16 0 .31.02.47.04l.24-1.26v-.01c-.3-.05-.61-.09-.91-.11L7.14.11c.81-.09 1.62-.12 2.44-.1L8.07 7.99z" fill="#ffffff"/></svg>