<?xml version="1.0" encoding="UTF-8"?>
<svg xmlns="http://www.w3.org/2000/svg" xmlns:xlink="http://www.w3.org/1999/xlink" width="24px" height="16px" viewBox="0 0 29 16" version="1.1">
<g id="surface1">
<path style=" stroke:none;fill-rule:nonzero;fill:rgb(100%,100%,100%);fill-opacity:1;" d="M 26.472656 11.535156 C 26.234375 11.792969 25.96875 12.023438 25.679688 12.21875 C 24.636719 12.941406 22.535156 13.871094 19.292969 13.039062 C 18.980469 12.953125 18.691406 12.878906 18.402344 12.796875 C 15.4375 11.914062 13.683594 10.765625 9.71875 10.261719 C 7.03125 10.324219 4.304688 10.65625 2.816406 11.253906 C 3.007812 11.449219 3.175781 11.644531 3.34375 11.851562 C 3.402344 11.988281 3.546875 12.390625 3.679688 12.796875 C 3.824219 13.234375 3.96875 13.652344 3.96875 13.652344 C 5.132812 13.039062 6.359375 12.550781 7.617188 12.195312 C 8.542969 11.9375 9.527344 11.78125 10.441406 11.828125 C 13.46875 12.023438 15.90625 13.613281 18.621094 14.910156 C 20.503906 15.449219 25.082031 15.851562 26.378906 15.265625 C 26.339844 15.265625 26.605469 13.992188 26.472656 11.535156 M 3.476562 13.246094 L 2.492188 13.601562 C 2.492188 13.601562 3.632812 14.765625 3.835938 15.21875 L 4.113281 16 C 4.113281 16 7.691406 13.992188 12.890625 14.300781 C 13.648438 14.347656 14.390625 14.496094 15.113281 14.714844 C 15.113281 14.714844 13.285156 13.515625 12.867188 13.382812 C 10.824219 12.867188 9.191406 12.636719 8.050781 12.585938 C 6.082031 13.125 3.777344 14.117188 3.777344 14.117188 C 3.777344 14.117188 3.632812 13.6875 3.476562 13.246094 M 25.679688 11.878906 C 25.488281 10.605469 24.996094 10.007812 24.996094 10.007812 C 19.328125 10.9375 15.820312 10.570312 13.46875 10.191406 C 14.308594 10.824219 16.347656 11.546875 18.390625 12.453125 C 18.679688 12.539062 18.980469 12.625 19.28125 12.710938 C 22.523438 13.527344 24.625 12.585938 25.679688 11.878906 M 22.929688 9.773438 L 23.664062 5.1875 C 23.902344 3.9375 23.640625 3.007812 22.367188 3.007812 C 21.214844 3.007812 20.480469 3.828125 19.878906 4.929688 L 19.867188 4.917969 C 19.929688 4.722656 19.964844 4.527344 19.976562 4.316406 C 19.976562 3.425781 19.472656 3.007812 18.703125 3.007812 C 17.550781 3.007812 16.914062 3.804688 16.324219 4.832031 L 16.300781 4.832031 C 16.519531 4.28125 16.6875 3.707031 16.792969 3.121094 C 15.855469 3.082031 14.910156 3.121094 13.972656 3.242188 L 13.71875 4.488281 C 14.089844 4.515625 14.453125 4.5625 14.824219 4.625 L 14.824219 4.660156 L 13.863281 9.773438 L 15.640625 9.773438 L 15.976562 7.949219 C 16.265625 6.375 17.335938 4.769531 17.933594 4.769531 C 18.234375 4.769531 18.332031 5.027344 18.199219 5.6875 L 17.539062 9.761719 L 19.316406 9.761719 L 19.59375 8 C 19.84375 6.410156 20.9375 4.78125 21.539062 4.78125 C 21.835938 4.78125 21.933594 5.039062 21.800781 5.699219 L 21.152344 9.773438 Z M 10.730469 4.527344 C 9.503906 4.527344 8.796875 6.273438 8.796875 7.511719 C 8.796875 8.011719 8.914062 8.246094 9.179688 8.246094 C 9.875 8.246094 11.054688 6.214844 11.28125 4.941406 L 11.339844 4.613281 C 11.136719 4.5625 10.933594 4.539062 10.730469 4.527344 M 12.183594 9.773438 L 10.394531 9.773438 C 10.5 9.1875 10.667969 8.613281 10.875 8.050781 L 10.835938 8.050781 C 10.273438 9.015625 9.480469 9.933594 8.460938 9.933594 C 7.425781 9.933594 6.898438 9.246094 6.898438 7.828125 C 6.898438 5.308594 8.183594 3.019531 11.054688 3.019531 C 11.246094 3.019531 11.425781 3.046875 11.617188 3.070312 L 11.90625 1.527344 L 11.90625 1.515625 C 11.546875 1.457031 11.171875 1.40625 10.8125 1.382812 L 11.066406 0.132812 C 12.039062 0.0234375 13.011719 -0.0117188 13.996094 0.0117188 Z M 12.183594 9.773438 "/>
</g>
</svg>
